<svg xmlns="http://www.w3.org/2000/svg" viewBox="0 0 128 128" role="img" aria-labelledby="title">
  <title>공격 시간 증가 손목시계</title>
  <defs><linearGradient id="case" x1="0" x2="1" y1="0" y2="1"><stop stop-color="#d9fbff"/><stop offset=".45" stop-color="#476178"/><stop offset="1" stop-color="#0c1728"/></linearGradient><filter id="glow"><feGaussianBlur stdDeviation="3" result="b"/><feMerge><feMergeNode in="b"/><feMergeNode in="SourceGraphic"/></feMerge></filter></defs>
  <path d="M46 9h36l5 25H41zM41 94h46l-5 25H46z" fill="#101c31" stroke="#18e0ff" stroke-width="3"/>
  <rect x="22" y="29" width="84" height="70" rx="21" fill="#07121f" stroke="url(#case)" stroke-width="7"/>
  <rect x="33" y="40" width="62" height="48" rx="10" fill="#092c3c" stroke="#27ffc8" stroke-width="2"/>
  <g filter="url(#glow)" fill="#a9fff5"><path d="M64 47h5v15l11 6-3 5-13-8z"/><path d="M64 52a12 12 0 1 0 9 21l4 3a18 18 0 1 1 1-27l-4 3a12 12 0 0 0-10 0z"/></g>
  <path d="M27 45h7M94 45h7M27 83h7M94 83h7" stroke="#ffda73" stroke-width="4" stroke-linecap="round"/>
</svg>
